G04 #@! TF.FileFunction,Legend,Top*
%FSLAX46Y46*%
G04 Gerber Fmt 4.6, Leading zero omitted, Abs format (unit mm)*
G04 Created by KiCad (PCBNEW 4.0.7) date Fri Oct  5 13:59:20 2018*
%MOMM*%
%LPD*%
G01*
G04 APERTURE LIST*
%ADD10C,0.100000*%
%ADD11C,0.120000*%
%ADD12C,0.150000*%
G04 APERTURE END LIST*
D10*
D11*
X133410000Y-124520000D02*
X133410000Y-121860000D01*
X123190000Y-124520000D02*
X133410000Y-124520000D01*
X123190000Y-121860000D02*
X133410000Y-121860000D01*
X123190000Y-124520000D02*
X123190000Y-121860000D01*
X121920000Y-124520000D02*
X120590000Y-124520000D01*
X120590000Y-124520000D02*
X120590000Y-123190000D01*
D10*
X132102472Y-126132228D02*
X126291180Y-126132228D01*
X126291180Y-126132228D02*
X126264849Y-124848795D01*
X126264849Y-124848795D02*
X117433627Y-124855483D01*
X117433627Y-124855483D02*
X117435603Y-126057736D01*
X117435603Y-126057736D02*
X108354807Y-126031658D01*
X108354807Y-126031658D02*
X108368805Y-94861507D01*
X108368805Y-94861507D02*
X108601616Y-94258714D01*
X108601616Y-94258714D02*
X108885099Y-93713833D01*
X108885099Y-93713833D02*
X109219747Y-93227423D01*
X109219747Y-93227423D02*
X109606047Y-92800048D01*
X109606047Y-92800048D02*
X110044488Y-92432259D01*
X110044488Y-92432259D02*
X110535560Y-92124623D01*
X110535560Y-92124623D02*
X111079750Y-91877690D01*
X111079750Y-91877690D02*
X111677547Y-91692024D01*
X111677547Y-91692024D02*
X130715460Y-91663266D01*
X130715460Y-91663266D02*
X131334824Y-91897259D01*
X131334824Y-91897259D02*
X131923018Y-92181742D01*
X131923018Y-92181742D02*
X132466445Y-92531257D01*
X132466445Y-92531257D02*
X132951503Y-92960342D01*
X132951503Y-92960342D02*
X133364595Y-93483540D01*
X133364595Y-93483540D02*
X133692122Y-94115387D01*
X133692122Y-94115387D02*
X133920482Y-94870425D01*
X133920482Y-94870425D02*
X134036078Y-95763193D01*
X134036078Y-95763193D02*
X134061026Y-118318285D01*
X134061026Y-118318285D02*
X132117480Y-119279181D01*
X132117480Y-119279181D02*
X132087686Y-126087524D01*
X118105350Y-119906451D02*
X125244931Y-119906451D01*
X125244931Y-119906451D02*
X125244931Y-125720188D01*
X125244931Y-125720188D02*
X118105350Y-125720188D01*
X118105350Y-125720188D02*
X118105350Y-119906451D01*
X132028600Y-119257349D02*
X130476378Y-119257349D01*
X130476378Y-119257349D02*
X129947211Y-119786515D01*
X129947211Y-119786515D02*
X128694850Y-119786515D01*
X128694850Y-119786515D02*
X128694850Y-124848876D01*
X128694850Y-124848876D02*
X129982489Y-124848876D01*
X129982489Y-124848876D02*
X130511656Y-125342765D01*
X130511656Y-125342765D02*
X132081517Y-125342765D01*
X132081517Y-125342765D02*
X132028600Y-119257349D01*
X132063878Y-121338738D02*
X132716517Y-121338738D01*
X132716517Y-121338738D02*
X132716517Y-123331932D01*
X132716517Y-123331932D02*
X132099156Y-123331932D01*
D11*
X109375000Y-91540000D02*
X115375000Y-91540000D01*
X115375000Y-91540000D02*
X115375000Y-83720000D01*
X115375000Y-83720000D02*
X109375000Y-83720000D01*
X109375000Y-83720000D02*
X109375000Y-91540000D01*
X115375000Y-90170000D02*
X114375000Y-90170000D01*
X114375000Y-90170000D02*
X114375000Y-85090000D01*
X114375000Y-85090000D02*
X115375000Y-85090000D01*
X114375000Y-90170000D02*
X113945000Y-89920000D01*
X113945000Y-89920000D02*
X113945000Y-85340000D01*
X113945000Y-85340000D02*
X114375000Y-85090000D01*
X115375000Y-89920000D02*
X114375000Y-89920000D01*
X115375000Y-85340000D02*
X114375000Y-85340000D01*
X109375000Y-90970000D02*
X109995000Y-90970000D01*
X109995000Y-90970000D02*
X109995000Y-89370000D01*
X109995000Y-89370000D02*
X109375000Y-89370000D01*
X109375000Y-88430000D02*
X109995000Y-88430000D01*
X109995000Y-88430000D02*
X109995000Y-86830000D01*
X109995000Y-86830000D02*
X109375000Y-86830000D01*
X109375000Y-85890000D02*
X109995000Y-85890000D01*
X109995000Y-85890000D02*
X109995000Y-84290000D01*
X109995000Y-84290000D02*
X109375000Y-84290000D01*
D10*
X129485000Y-93582000D02*
X129485000Y-103582000D01*
X113085000Y-93582000D02*
X113085000Y-94082000D01*
X113485000Y-93582000D02*
X113085000Y-93582000D01*
X113085000Y-113182000D02*
X113085000Y-113682000D01*
X113485000Y-113682000D02*
X113085000Y-113682000D01*
X129485000Y-113182000D02*
X129485000Y-113682000D01*
X129485000Y-113682000D02*
X129085000Y-113682000D01*
X129485000Y-93582000D02*
X129085000Y-93582000D01*
D11*
X114570000Y-116715000D02*
X116570000Y-116715000D01*
X114570000Y-123315000D02*
X116570000Y-123315000D01*
X118870000Y-119015000D02*
X118870000Y-121015000D01*
X112270000Y-119015000D02*
X112270000Y-121015000D01*
X118265000Y-91540000D02*
X124265000Y-91540000D01*
X124265000Y-91540000D02*
X124265000Y-83720000D01*
X124265000Y-83720000D02*
X118265000Y-83720000D01*
X118265000Y-83720000D02*
X118265000Y-91540000D01*
X124265000Y-90170000D02*
X123265000Y-90170000D01*
X123265000Y-90170000D02*
X123265000Y-85090000D01*
X123265000Y-85090000D02*
X124265000Y-85090000D01*
X123265000Y-90170000D02*
X122835000Y-89920000D01*
X122835000Y-89920000D02*
X122835000Y-85340000D01*
X122835000Y-85340000D02*
X123265000Y-85090000D01*
X124265000Y-89920000D02*
X123265000Y-89920000D01*
X124265000Y-85340000D02*
X123265000Y-85340000D01*
X118265000Y-90970000D02*
X118885000Y-90970000D01*
X118885000Y-90970000D02*
X118885000Y-89370000D01*
X118885000Y-89370000D02*
X118265000Y-89370000D01*
X118265000Y-88430000D02*
X118885000Y-88430000D01*
X118885000Y-88430000D02*
X118885000Y-86830000D01*
X118885000Y-86830000D02*
X118265000Y-86830000D01*
X118265000Y-85890000D02*
X118885000Y-85890000D01*
X118885000Y-85890000D02*
X118885000Y-84290000D01*
X118885000Y-84290000D02*
X118265000Y-84290000D01*
X127155000Y-91540000D02*
X133155000Y-91540000D01*
X133155000Y-91540000D02*
X133155000Y-83720000D01*
X133155000Y-83720000D02*
X127155000Y-83720000D01*
X127155000Y-83720000D02*
X127155000Y-91540000D01*
X133155000Y-90170000D02*
X132155000Y-90170000D01*
X132155000Y-90170000D02*
X132155000Y-85090000D01*
X132155000Y-85090000D02*
X133155000Y-85090000D01*
X132155000Y-90170000D02*
X131725000Y-89920000D01*
X131725000Y-89920000D02*
X131725000Y-85340000D01*
X131725000Y-85340000D02*
X132155000Y-85090000D01*
X133155000Y-89920000D02*
X132155000Y-89920000D01*
X133155000Y-85340000D02*
X132155000Y-85340000D01*
X127155000Y-90970000D02*
X127775000Y-90970000D01*
X127775000Y-90970000D02*
X127775000Y-89370000D01*
X127775000Y-89370000D02*
X127155000Y-89370000D01*
X127155000Y-88430000D02*
X127775000Y-88430000D01*
X127775000Y-88430000D02*
X127775000Y-86830000D01*
X127775000Y-86830000D02*
X127155000Y-86830000D01*
X127155000Y-85890000D02*
X127775000Y-85890000D01*
X127775000Y-85890000D02*
X127775000Y-84290000D01*
X127775000Y-84290000D02*
X127155000Y-84290000D01*
X120590000Y-119320000D02*
X120590000Y-121980000D01*
X130810000Y-119320000D02*
X120590000Y-119320000D01*
X130810000Y-121980000D02*
X120590000Y-121980000D01*
X130810000Y-119320000D02*
X130810000Y-121980000D01*
X132080000Y-119320000D02*
X133410000Y-119320000D01*
X133410000Y-119320000D02*
X133410000Y-120650000D01*
D12*
X119042381Y-123523333D02*
X119756667Y-123523333D01*
X119899524Y-123570953D01*
X119994762Y-123666191D01*
X120042381Y-123809048D01*
X120042381Y-123904286D01*
X119042381Y-122618571D02*
X119042381Y-122809048D01*
X119090000Y-122904286D01*
X119137619Y-122951905D01*
X119280476Y-123047143D01*
X119470952Y-123094762D01*
X119851905Y-123094762D01*
X119947143Y-123047143D01*
X119994762Y-122999524D01*
X120042381Y-122904286D01*
X120042381Y-122713809D01*
X119994762Y-122618571D01*
X119947143Y-122570952D01*
X119851905Y-122523333D01*
X119613810Y-122523333D01*
X119518571Y-122570952D01*
X119470952Y-122618571D01*
X119423333Y-122713809D01*
X119423333Y-122904286D01*
X119470952Y-122999524D01*
X119518571Y-123047143D01*
X119613810Y-123094762D01*
X121793095Y-128117381D02*
X121793095Y-128926905D01*
X121840714Y-129022143D01*
X121888333Y-129069762D01*
X121983571Y-129117381D01*
X122174048Y-129117381D01*
X122269286Y-129069762D01*
X122316905Y-129022143D01*
X122364524Y-128926905D01*
X122364524Y-128117381D01*
X123364524Y-129117381D02*
X122793095Y-129117381D01*
X123078809Y-129117381D02*
X123078809Y-128117381D01*
X122983571Y-128260238D01*
X122888333Y-128355476D01*
X122793095Y-128403095D01*
X114427857Y-92972143D02*
X115142143Y-95972143D01*
X115713572Y-93829286D01*
X116285000Y-95972143D01*
X116999286Y-92972143D01*
X119285000Y-95829286D02*
X118999286Y-95972143D01*
X118427857Y-95972143D01*
X118142143Y-95829286D01*
X117999286Y-95543571D01*
X117999286Y-94400714D01*
X118142143Y-94115000D01*
X118427857Y-93972143D01*
X118999286Y-93972143D01*
X119285000Y-94115000D01*
X119427857Y-94400714D01*
X119427857Y-94686429D01*
X117999286Y-94972143D01*
X120713572Y-95972143D02*
X120713572Y-92972143D01*
X121713572Y-95115000D01*
X122713572Y-92972143D01*
X122713572Y-95972143D01*
X124570714Y-95972143D02*
X124285000Y-95829286D01*
X124142143Y-95686429D01*
X123999286Y-95400714D01*
X123999286Y-94543571D01*
X124142143Y-94257857D01*
X124285000Y-94115000D01*
X124570714Y-93972143D01*
X124999286Y-93972143D01*
X125285000Y-94115000D01*
X125427857Y-94257857D01*
X125570714Y-94543571D01*
X125570714Y-95400714D01*
X125427857Y-95686429D01*
X125285000Y-95829286D01*
X124999286Y-95972143D01*
X124570714Y-95972143D01*
X126713572Y-95829286D02*
X126999286Y-95972143D01*
X127570714Y-95972143D01*
X127856429Y-95829286D01*
X127999286Y-95543571D01*
X127999286Y-95400714D01*
X127856429Y-95115000D01*
X127570714Y-94972143D01*
X127142143Y-94972143D01*
X126856429Y-94829286D01*
X126713572Y-94543571D01*
X126713572Y-94400714D01*
X126856429Y-94115000D01*
X127142143Y-93972143D01*
X127570714Y-93972143D01*
X127856429Y-94115000D01*
X107347381Y-89503333D02*
X108061667Y-89503333D01*
X108204524Y-89550953D01*
X108299762Y-89646191D01*
X108347381Y-89789048D01*
X108347381Y-89884286D01*
X107347381Y-89122381D02*
X107347381Y-88503333D01*
X107728333Y-88836667D01*
X107728333Y-88693809D01*
X107775952Y-88598571D01*
X107823571Y-88550952D01*
X107918810Y-88503333D01*
X108156905Y-88503333D01*
X108252143Y-88550952D01*
X108299762Y-88598571D01*
X108347381Y-88693809D01*
X108347381Y-88979524D01*
X108299762Y-89074762D01*
X108252143Y-89122381D01*
X130737381Y-96808190D02*
X129737381Y-96808190D01*
X130642143Y-95760571D02*
X130689762Y-95808190D01*
X130737381Y-95951047D01*
X130737381Y-96046285D01*
X130689762Y-96189143D01*
X130594524Y-96284381D01*
X130499286Y-96332000D01*
X130308810Y-96379619D01*
X130165952Y-96379619D01*
X129975476Y-96332000D01*
X129880238Y-96284381D01*
X129785000Y-96189143D01*
X129737381Y-96046285D01*
X129737381Y-95951047D01*
X129785000Y-95808190D01*
X129832619Y-95760571D01*
X130737381Y-94808190D02*
X130737381Y-95379619D01*
X130737381Y-95093905D02*
X129737381Y-95093905D01*
X129880238Y-95189143D01*
X129975476Y-95284381D01*
X130023095Y-95379619D01*
X115236667Y-114467381D02*
X115236667Y-115181667D01*
X115189047Y-115324524D01*
X115093809Y-115419762D01*
X114950952Y-115467381D01*
X114855714Y-115467381D01*
X116236667Y-115467381D02*
X115665238Y-115467381D01*
X115950952Y-115467381D02*
X115950952Y-114467381D01*
X115855714Y-114610238D01*
X115760476Y-114705476D01*
X115665238Y-114753095D01*
X116237381Y-89503333D02*
X116951667Y-89503333D01*
X117094524Y-89550953D01*
X117189762Y-89646191D01*
X117237381Y-89789048D01*
X117237381Y-89884286D01*
X116570714Y-88598571D02*
X117237381Y-88598571D01*
X116189762Y-88836667D02*
X116904048Y-89074762D01*
X116904048Y-88455714D01*
X125127381Y-89503333D02*
X125841667Y-89503333D01*
X125984524Y-89550953D01*
X126079762Y-89646191D01*
X126127381Y-89789048D01*
X126127381Y-89884286D01*
X125127381Y-88550952D02*
X125127381Y-89027143D01*
X125603571Y-89074762D01*
X125555952Y-89027143D01*
X125508333Y-88931905D01*
X125508333Y-88693809D01*
X125555952Y-88598571D01*
X125603571Y-88550952D01*
X125698810Y-88503333D01*
X125936905Y-88503333D01*
X126032143Y-88550952D01*
X126079762Y-88598571D01*
X126127381Y-88693809D01*
X126127381Y-88931905D01*
X126079762Y-89027143D01*
X126032143Y-89074762D01*
X133862381Y-120983333D02*
X134576667Y-120983333D01*
X134719524Y-121030953D01*
X134814762Y-121126191D01*
X134862381Y-121269048D01*
X134862381Y-121364286D01*
X133957619Y-120554762D02*
X133910000Y-120507143D01*
X133862381Y-120411905D01*
X133862381Y-120173809D01*
X133910000Y-120078571D01*
X133957619Y-120030952D01*
X134052857Y-119983333D01*
X134148095Y-119983333D01*
X134290952Y-120030952D01*
X134862381Y-120602381D01*
X134862381Y-119983333D01*
M02*
