G04 #@! TF.FileFunction,Copper,L2,Bot,Signal*
%FSLAX46Y46*%
G04 Gerber Fmt 4.6, Leading zero omitted, Abs format (unit mm)*
G04 Created by KiCad (PCBNEW 4.0.7) date Fri Oct  5 13:59:20 2018*
%MOMM*%
%LPD*%
G01*
G04 APERTURE LIST*
%ADD10C,0.100000*%
%ADD11R,1.700000X1.700000*%
%ADD12O,1.700000X1.700000*%
%ADD13C,1.800000*%
%ADD14R,2.600000X2.000000*%
%ADD15O,2.600000X2.000000*%
%ADD16C,2.200000*%
%ADD17C,2.000000*%
%ADD18C,0.600000*%
%ADD19C,0.250000*%
%ADD20C,0.254000*%
G04 APERTURE END LIST*
D10*
D11*
X121920000Y-123190000D03*
D12*
X124460000Y-123190000D03*
X127000000Y-123190000D03*
X129540000Y-123190000D03*
X132080000Y-123190000D03*
D13*
X109855000Y-99695000D03*
X109855000Y-102235000D03*
X109855000Y-104775000D03*
X109855000Y-107315000D03*
X109855000Y-109855000D03*
X109855000Y-112395000D03*
X109855000Y-114935000D03*
X109855000Y-117475000D03*
X132715000Y-117475000D03*
X132715000Y-114935000D03*
X132715000Y-112395000D03*
X132715000Y-109855000D03*
X132715000Y-107315000D03*
X132715000Y-104775000D03*
X132715000Y-102235000D03*
X132715000Y-99695000D03*
D14*
X112395000Y-90170000D03*
D15*
X112395000Y-87630000D03*
X112395000Y-85090000D03*
D16*
X113030000Y-122555000D03*
X113030000Y-117475000D03*
X118110000Y-117475000D03*
X118110000Y-122555000D03*
D17*
X115570000Y-120015000D03*
D14*
X121285000Y-90170000D03*
D15*
X121285000Y-87630000D03*
X121285000Y-85090000D03*
D14*
X130175000Y-90170000D03*
D15*
X130175000Y-87630000D03*
X130175000Y-85090000D03*
D11*
X132080000Y-120650000D03*
D12*
X129540000Y-120650000D03*
X127000000Y-120650000D03*
X124460000Y-120650000D03*
X121920000Y-120650000D03*
D18*
X126238000Y-114300000D03*
X124206000Y-114300000D03*
X122174000Y-114300000D03*
X130556000Y-118618000D03*
X127508000Y-118110000D03*
X120142000Y-114300000D03*
X114046000Y-114300000D03*
X114300000Y-92964000D03*
X110998000Y-103632000D03*
X112014000Y-95504000D03*
X126238000Y-92964000D03*
X130048000Y-104902000D03*
X111760000Y-93218000D03*
X116332000Y-114300000D03*
X114808000Y-115570000D03*
X112014000Y-113792000D03*
D19*
X132080000Y-120650000D02*
X132080000Y-119126000D01*
X131318000Y-116332000D02*
X132715000Y-114935000D01*
X131318000Y-118364000D02*
X131318000Y-116332000D01*
X132080000Y-119126000D02*
X131318000Y-118364000D01*
X126873000Y-114935000D02*
X132715000Y-114935000D01*
X126238000Y-114300000D02*
X126873000Y-114935000D01*
X129540000Y-120650000D02*
X129540000Y-116332000D01*
X124206000Y-115062000D02*
X124206000Y-114300000D01*
X124714000Y-115570000D02*
X124206000Y-115062000D01*
X128778000Y-115570000D02*
X124714000Y-115570000D01*
X129540000Y-116332000D02*
X128778000Y-115570000D01*
X126111000Y-112395000D02*
X132715000Y-112395000D01*
X124206000Y-114300000D02*
X126111000Y-112395000D01*
X129540000Y-123190000D02*
X129286000Y-123190000D01*
X129286000Y-123190000D02*
X128270000Y-122174000D01*
X128270000Y-122174000D02*
X128270000Y-116840000D01*
X128270000Y-116840000D02*
X127508000Y-116078000D01*
X127508000Y-116078000D02*
X122936000Y-116078000D01*
X122936000Y-116078000D02*
X122174000Y-115316000D01*
X122174000Y-115316000D02*
X122174000Y-114300000D01*
X126619000Y-109855000D02*
X132715000Y-109855000D01*
X122174000Y-114300000D02*
X126619000Y-109855000D01*
X132080000Y-123190000D02*
X131826000Y-123190000D01*
X131826000Y-123190000D02*
X130810000Y-122174000D01*
X130810000Y-122174000D02*
X130810000Y-118872000D01*
X130810000Y-118872000D02*
X130556000Y-118618000D01*
X127508000Y-118110000D02*
X127508000Y-116840000D01*
X127508000Y-116840000D02*
X127254000Y-116586000D01*
X127254000Y-116586000D02*
X122428000Y-116586000D01*
X122428000Y-116586000D02*
X120142000Y-114300000D01*
X127127000Y-107315000D02*
X132715000Y-107315000D01*
X120142000Y-114300000D02*
X127127000Y-107315000D01*
X114300000Y-92964000D02*
X113792000Y-92964000D01*
X110998000Y-91694000D02*
X114808000Y-91694000D01*
X110744000Y-91948000D02*
X110998000Y-91694000D01*
X110744000Y-94234000D02*
X110744000Y-91948000D01*
X110998000Y-94488000D02*
X110744000Y-94234000D01*
X112268000Y-94488000D02*
X110998000Y-94488000D01*
X113792000Y-92964000D02*
X112268000Y-94488000D01*
X114808000Y-91694000D02*
X115316000Y-91186000D01*
X115316000Y-91186000D02*
X115316000Y-88011000D01*
X115316000Y-88011000D02*
X112395000Y-85090000D01*
X121285000Y-85090000D02*
X130175000Y-85090000D01*
X112395000Y-85090000D02*
X121285000Y-85090000D01*
X110998000Y-103632000D02*
X111252000Y-103886000D01*
X111252000Y-103886000D02*
X111252000Y-108712000D01*
X110109000Y-109855000D02*
X111252000Y-108712000D01*
X112014000Y-95504000D02*
X112268000Y-95250000D01*
X112268000Y-95250000D02*
X112522000Y-95250000D01*
X126238000Y-94488000D02*
X126238000Y-92964000D01*
X112268000Y-95250000D02*
X112522000Y-95250000D01*
X112522000Y-95250000D02*
X125476000Y-95250000D01*
X125476000Y-95250000D02*
X126238000Y-94488000D01*
X109855000Y-109855000D02*
X110109000Y-109855000D01*
X130048000Y-104902000D02*
X130417996Y-104532004D01*
X130417996Y-104532004D02*
X130417996Y-92825996D01*
X130417996Y-92825996D02*
X130048000Y-92456000D01*
X130048000Y-92456000D02*
X127125602Y-92456000D01*
X127125602Y-92456000D02*
X126871602Y-92202000D01*
X126871602Y-92202000D02*
X112776000Y-92202000D01*
X112776000Y-92202000D02*
X111760000Y-93218000D01*
X115570000Y-115062000D02*
X115570000Y-120015000D01*
X116332000Y-114300000D02*
X115570000Y-115062000D01*
X116078000Y-113538000D02*
X117602000Y-113538000D01*
X114808000Y-114808000D02*
X116078000Y-113538000D01*
X114808000Y-115570000D02*
X114808000Y-114808000D01*
X117602000Y-113538000D02*
X121666000Y-117602000D01*
X126746000Y-123190000D02*
X125730000Y-122174000D01*
X124517998Y-117602000D02*
X121666000Y-117602000D01*
X125730000Y-118814002D02*
X124517998Y-117602000D01*
X125730000Y-122174000D02*
X125730000Y-118814002D01*
X127000000Y-123190000D02*
X126746000Y-123190000D01*
X112776000Y-113030000D02*
X117856000Y-113030000D01*
X112014000Y-113792000D02*
X112776000Y-113030000D01*
X121920000Y-117094000D02*
X117856000Y-113030000D01*
X127000000Y-118618000D02*
X125476000Y-117094000D01*
X125476000Y-117094000D02*
X121920000Y-117094000D01*
X127000000Y-120650000D02*
X127000000Y-118618000D01*
X111252000Y-102362000D02*
X111252000Y-98298000D01*
X109220000Y-96266000D02*
X109220000Y-88900000D01*
X109220000Y-88900000D02*
X110490000Y-87630000D01*
X110490000Y-87630000D02*
X112395000Y-87630000D01*
X111252000Y-98298000D02*
X109220000Y-96266000D01*
X111760000Y-102870000D02*
X111760000Y-110998000D01*
X111252000Y-102362000D02*
X111760000Y-102870000D01*
X109855000Y-112395000D02*
X110363000Y-112395000D01*
X110363000Y-112395000D02*
X111760000Y-110998000D01*
X132715000Y-104775000D02*
X132461000Y-104775000D01*
X132461000Y-104775000D02*
X130867998Y-103181998D01*
X130867998Y-103181998D02*
X130867998Y-92513998D01*
X130867998Y-92513998D02*
X130302000Y-91948000D01*
X130302000Y-91948000D02*
X127254000Y-91948000D01*
X127254000Y-91948000D02*
X122936000Y-87630000D01*
X122936000Y-87630000D02*
X121285000Y-87630000D01*
X132715000Y-102235000D02*
X131318000Y-100838000D01*
X131572000Y-87630000D02*
X130175000Y-87630000D01*
X132588000Y-88646000D02*
X131572000Y-87630000D01*
X132588000Y-91186000D02*
X132588000Y-88646000D01*
X131318000Y-92456000D02*
X132588000Y-91186000D01*
X131318000Y-100838000D02*
X131318000Y-92456000D01*
D20*
G36*
X114556000Y-88325802D02*
X114556000Y-90871198D01*
X114493198Y-90934000D01*
X114330000Y-90934000D01*
X114330000Y-90455750D01*
X114171250Y-90297000D01*
X112522000Y-90297000D01*
X112522000Y-90317000D01*
X112268000Y-90317000D01*
X112268000Y-90297000D01*
X110618750Y-90297000D01*
X110460000Y-90455750D01*
X110460000Y-91157198D01*
X110206599Y-91410599D01*
X110041852Y-91657161D01*
X109984000Y-91948000D01*
X109984000Y-94234000D01*
X110041852Y-94524839D01*
X110206599Y-94771401D01*
X110460599Y-95025401D01*
X110707160Y-95190148D01*
X110998000Y-95248000D01*
X111107897Y-95248000D01*
X111079162Y-95317201D01*
X111078838Y-95689167D01*
X111220883Y-96032943D01*
X111483673Y-96296192D01*
X111827201Y-96438838D01*
X112199167Y-96439162D01*
X112542943Y-96297117D01*
X112806192Y-96034327D01*
X112816294Y-96010000D01*
X125476000Y-96010000D01*
X125766839Y-95952148D01*
X126013401Y-95787401D01*
X126775401Y-95025401D01*
X126940148Y-94778839D01*
X126998000Y-94488000D01*
X126998000Y-93526463D01*
X127030192Y-93494327D01*
X127145764Y-93216000D01*
X129657996Y-93216000D01*
X129657996Y-104051475D01*
X129519057Y-104108883D01*
X129255808Y-104371673D01*
X129113162Y-104715201D01*
X129112838Y-105087167D01*
X129254883Y-105430943D01*
X129517673Y-105694192D01*
X129861201Y-105836838D01*
X130233167Y-105837162D01*
X130576943Y-105695117D01*
X130840192Y-105432327D01*
X130982838Y-105088799D01*
X130982891Y-105028258D01*
X131120144Y-104822844D01*
X131172223Y-104561025D01*
X131180179Y-104568981D01*
X131179735Y-105078991D01*
X131412932Y-105643371D01*
X131814182Y-106045323D01*
X131414449Y-106444357D01*
X131368506Y-106555000D01*
X127127000Y-106555000D01*
X126836161Y-106612852D01*
X126589599Y-106777599D01*
X120002320Y-113364878D01*
X119956833Y-113364838D01*
X119613057Y-113506883D01*
X119510281Y-113609479D01*
X118393401Y-112492599D01*
X118146839Y-112327852D01*
X117856000Y-112270000D01*
X112776000Y-112270000D01*
X112485161Y-112327852D01*
X112238599Y-112492599D01*
X111874320Y-112856878D01*
X111828833Y-112856838D01*
X111485057Y-112998883D01*
X111221808Y-113261673D01*
X111079162Y-113605201D01*
X111078838Y-113977167D01*
X111129566Y-114099939D01*
X110935159Y-114034446D01*
X110034605Y-114935000D01*
X110935159Y-115835554D01*
X111191643Y-115749148D01*
X111401458Y-115175664D01*
X111375839Y-114565540D01*
X111312566Y-114412786D01*
X111483673Y-114584192D01*
X111827201Y-114726838D01*
X112199167Y-114727162D01*
X112542943Y-114585117D01*
X112806192Y-114322327D01*
X112948838Y-113978799D01*
X112948879Y-113931923D01*
X113090802Y-113790000D01*
X114751198Y-113790000D01*
X114270599Y-114270599D01*
X114105852Y-114517161D01*
X114048000Y-114808000D01*
X114048000Y-115007537D01*
X114015808Y-115039673D01*
X113873162Y-115383201D01*
X113872838Y-115755167D01*
X113962517Y-115972207D01*
X113318407Y-115729677D01*
X112628547Y-115752164D01*
X112095641Y-115972901D01*
X111984737Y-116250132D01*
X113030000Y-117295395D01*
X113044143Y-117281253D01*
X113223748Y-117460858D01*
X113209605Y-117475000D01*
X114254868Y-118520263D01*
X114532099Y-118409359D01*
X114775323Y-117763407D01*
X114752836Y-117073547D01*
X114532099Y-116540641D01*
X114254870Y-116429738D01*
X114309288Y-116375320D01*
X114621201Y-116504838D01*
X114810000Y-116505002D01*
X114810000Y-118559953D01*
X114645057Y-118628106D01*
X114184722Y-119087637D01*
X113935284Y-119688352D01*
X113934716Y-120338795D01*
X114183106Y-120939943D01*
X114642637Y-121400278D01*
X115243352Y-121649716D01*
X115893795Y-121650284D01*
X116494943Y-121401894D01*
X116566830Y-121330132D01*
X117064737Y-121330132D01*
X118110000Y-122375395D01*
X119155263Y-121330132D01*
X119044359Y-121052901D01*
X118398407Y-120809677D01*
X117708547Y-120832164D01*
X117175641Y-121052901D01*
X117064737Y-121330132D01*
X116566830Y-121330132D01*
X116955278Y-120942363D01*
X117204716Y-120341648D01*
X117204758Y-120293108D01*
X120478514Y-120293108D01*
X120599181Y-120523000D01*
X121793000Y-120523000D01*
X121793000Y-119329845D01*
X121563110Y-119208524D01*
X121153076Y-119378355D01*
X120724817Y-119768642D01*
X120478514Y-120293108D01*
X117204758Y-120293108D01*
X117205284Y-119691205D01*
X116956894Y-119090057D01*
X116567387Y-118699868D01*
X117064737Y-118699868D01*
X117175641Y-118977099D01*
X117821593Y-119220323D01*
X118511453Y-119197836D01*
X119044359Y-118977099D01*
X119155263Y-118699868D01*
X118110000Y-117654605D01*
X117064737Y-118699868D01*
X116567387Y-118699868D01*
X116497363Y-118629722D01*
X116330000Y-118560227D01*
X116330000Y-117186593D01*
X116364677Y-117186593D01*
X116387164Y-117876453D01*
X116607901Y-118409359D01*
X116885132Y-118520263D01*
X117930395Y-117475000D01*
X116885132Y-116429737D01*
X116607901Y-116540641D01*
X116364677Y-117186593D01*
X116330000Y-117186593D01*
X116330000Y-115376802D01*
X116471680Y-115235122D01*
X116517167Y-115235162D01*
X116860943Y-115093117D01*
X117124192Y-114830327D01*
X117266838Y-114486799D01*
X117267002Y-114298000D01*
X117287198Y-114298000D01*
X118912419Y-115923221D01*
X118398407Y-115729677D01*
X117708547Y-115752164D01*
X117175641Y-115972901D01*
X117064737Y-116250132D01*
X118110000Y-117295395D01*
X118124143Y-117281253D01*
X118303748Y-117460858D01*
X118289605Y-117475000D01*
X119334868Y-118520263D01*
X119612099Y-118409359D01*
X119855323Y-117763407D01*
X119832836Y-117073547D01*
X119670266Y-116681068D01*
X121128599Y-118139401D01*
X121375161Y-118304148D01*
X121666000Y-118362000D01*
X124203196Y-118362000D01*
X124970000Y-119128804D01*
X124970000Y-119237352D01*
X124460000Y-119135907D01*
X123891715Y-119248946D01*
X123409946Y-119570853D01*
X123182298Y-119911553D01*
X123115183Y-119768642D01*
X122686924Y-119378355D01*
X122276890Y-119208524D01*
X122047000Y-119329845D01*
X122047000Y-120523000D01*
X122067000Y-120523000D01*
X122067000Y-120777000D01*
X122047000Y-120777000D01*
X122047000Y-120797000D01*
X121793000Y-120797000D01*
X121793000Y-120777000D01*
X120599181Y-120777000D01*
X120478514Y-121006892D01*
X120724817Y-121531358D01*
X120930504Y-121718808D01*
X120834683Y-121736838D01*
X120618559Y-121875910D01*
X120473569Y-122088110D01*
X120422560Y-122340000D01*
X120422560Y-124040000D01*
X120466838Y-124275317D01*
X120605910Y-124491441D01*
X120818110Y-124636431D01*
X121070000Y-124687440D01*
X122770000Y-124687440D01*
X123005317Y-124643162D01*
X123221441Y-124504090D01*
X123366431Y-124291890D01*
X123380086Y-124224459D01*
X123409946Y-124269147D01*
X123891715Y-124591054D01*
X124460000Y-124704093D01*
X125028285Y-124591054D01*
X125510054Y-124269147D01*
X125730000Y-123939974D01*
X125949946Y-124269147D01*
X126431715Y-124591054D01*
X127000000Y-124704093D01*
X127568285Y-124591054D01*
X128050054Y-124269147D01*
X128270000Y-123939974D01*
X128489946Y-124269147D01*
X128971715Y-124591054D01*
X129540000Y-124704093D01*
X130108285Y-124591054D01*
X130590054Y-124269147D01*
X130810000Y-123939974D01*
X131029946Y-124269147D01*
X131511715Y-124591054D01*
X132080000Y-124704093D01*
X132648285Y-124591054D01*
X133130054Y-124269147D01*
X133402000Y-123862150D01*
X133402000Y-125274000D01*
X109168000Y-125274000D01*
X109168000Y-123779868D01*
X111984737Y-123779868D01*
X112095641Y-124057099D01*
X112741593Y-124300323D01*
X113431453Y-124277836D01*
X113964359Y-124057099D01*
X114075263Y-123779868D01*
X117064737Y-123779868D01*
X117175641Y-124057099D01*
X117821593Y-124300323D01*
X118511453Y-124277836D01*
X119044359Y-124057099D01*
X119155263Y-123779868D01*
X118110000Y-122734605D01*
X117064737Y-123779868D01*
X114075263Y-123779868D01*
X113030000Y-122734605D01*
X111984737Y-123779868D01*
X109168000Y-123779868D01*
X109168000Y-122266593D01*
X111284677Y-122266593D01*
X111307164Y-122956453D01*
X111527901Y-123489359D01*
X111805132Y-123600263D01*
X112850395Y-122555000D01*
X113209605Y-122555000D01*
X114254868Y-123600263D01*
X114532099Y-123489359D01*
X114775323Y-122843407D01*
X114756521Y-122266593D01*
X116364677Y-122266593D01*
X116387164Y-122956453D01*
X116607901Y-123489359D01*
X116885132Y-123600263D01*
X117930395Y-122555000D01*
X118289605Y-122555000D01*
X119334868Y-123600263D01*
X119612099Y-123489359D01*
X119855323Y-122843407D01*
X119832836Y-122153547D01*
X119612099Y-121620641D01*
X119334868Y-121509737D01*
X118289605Y-122555000D01*
X117930395Y-122555000D01*
X116885132Y-121509737D01*
X116607901Y-121620641D01*
X116364677Y-122266593D01*
X114756521Y-122266593D01*
X114752836Y-122153547D01*
X114532099Y-121620641D01*
X114254868Y-121509737D01*
X113209605Y-122555000D01*
X112850395Y-122555000D01*
X111805132Y-121509737D01*
X111527901Y-121620641D01*
X111284677Y-122266593D01*
X109168000Y-122266593D01*
X109168000Y-121330132D01*
X111984737Y-121330132D01*
X113030000Y-122375395D01*
X114075263Y-121330132D01*
X113964359Y-121052901D01*
X113318407Y-120809677D01*
X112628547Y-120832164D01*
X112095641Y-121052901D01*
X111984737Y-121330132D01*
X109168000Y-121330132D01*
X109168000Y-118851806D01*
X109548330Y-119009733D01*
X110158991Y-119010265D01*
X110723371Y-118777068D01*
X110800706Y-118699868D01*
X111984737Y-118699868D01*
X112095641Y-118977099D01*
X112741593Y-119220323D01*
X113431453Y-119197836D01*
X113964359Y-118977099D01*
X114075263Y-118699868D01*
X113030000Y-117654605D01*
X111984737Y-118699868D01*
X110800706Y-118699868D01*
X111155551Y-118345643D01*
X111328743Y-117928550D01*
X111527901Y-118409359D01*
X111805132Y-118520263D01*
X112850395Y-117475000D01*
X111805132Y-116429737D01*
X111527901Y-116540641D01*
X111338091Y-117044737D01*
X111157068Y-116606629D01*
X110725643Y-116174449D01*
X110704806Y-116165797D01*
X110755554Y-116015159D01*
X109855000Y-115114605D01*
X109840858Y-115128748D01*
X109661253Y-114949143D01*
X109675395Y-114935000D01*
X109661253Y-114920858D01*
X109840858Y-114741253D01*
X109855000Y-114755395D01*
X110755554Y-113854841D01*
X110704965Y-113704673D01*
X110723371Y-113697068D01*
X111155551Y-113265643D01*
X111389733Y-112701670D01*
X111389958Y-112442844D01*
X112297401Y-111535401D01*
X112462148Y-111288840D01*
X112520000Y-110998000D01*
X112520000Y-102870000D01*
X112462148Y-102579161D01*
X112297401Y-102332599D01*
X112012000Y-102047198D01*
X112012000Y-98298000D01*
X111954148Y-98007161D01*
X111789401Y-97760599D01*
X109980000Y-95951198D01*
X109980000Y-89214802D01*
X110703788Y-88491014D01*
X110784231Y-88611406D01*
X110735301Y-88631673D01*
X110556673Y-88810302D01*
X110460000Y-89043691D01*
X110460000Y-89884250D01*
X110618750Y-90043000D01*
X112268000Y-90043000D01*
X112268000Y-90023000D01*
X112522000Y-90023000D01*
X112522000Y-90043000D01*
X114171250Y-90043000D01*
X114330000Y-89884250D01*
X114330000Y-89043691D01*
X114233327Y-88810302D01*
X114054699Y-88631673D01*
X114005769Y-88611406D01*
X114243452Y-88255687D01*
X114283674Y-88053476D01*
X114556000Y-88325802D01*
X114556000Y-88325802D01*
G37*
X114556000Y-88325802D02*
X114556000Y-90871198D01*
X114493198Y-90934000D01*
X114330000Y-90934000D01*
X114330000Y-90455750D01*
X114171250Y-90297000D01*
X112522000Y-90297000D01*
X112522000Y-90317000D01*
X112268000Y-90317000D01*
X112268000Y-90297000D01*
X110618750Y-90297000D01*
X110460000Y-90455750D01*
X110460000Y-91157198D01*
X110206599Y-91410599D01*
X110041852Y-91657161D01*
X109984000Y-91948000D01*
X109984000Y-94234000D01*
X110041852Y-94524839D01*
X110206599Y-94771401D01*
X110460599Y-95025401D01*
X110707160Y-95190148D01*
X110998000Y-95248000D01*
X111107897Y-95248000D01*
X111079162Y-95317201D01*
X111078838Y-95689167D01*
X111220883Y-96032943D01*
X111483673Y-96296192D01*
X111827201Y-96438838D01*
X112199167Y-96439162D01*
X112542943Y-96297117D01*
X112806192Y-96034327D01*
X112816294Y-96010000D01*
X125476000Y-96010000D01*
X125766839Y-95952148D01*
X126013401Y-95787401D01*
X126775401Y-95025401D01*
X126940148Y-94778839D01*
X126998000Y-94488000D01*
X126998000Y-93526463D01*
X127030192Y-93494327D01*
X127145764Y-93216000D01*
X129657996Y-93216000D01*
X129657996Y-104051475D01*
X129519057Y-104108883D01*
X129255808Y-104371673D01*
X129113162Y-104715201D01*
X129112838Y-105087167D01*
X129254883Y-105430943D01*
X129517673Y-105694192D01*
X129861201Y-105836838D01*
X130233167Y-105837162D01*
X130576943Y-105695117D01*
X130840192Y-105432327D01*
X130982838Y-105088799D01*
X130982891Y-105028258D01*
X131120144Y-104822844D01*
X131172223Y-104561025D01*
X131180179Y-104568981D01*
X131179735Y-105078991D01*
X131412932Y-105643371D01*
X131814182Y-106045323D01*
X131414449Y-106444357D01*
X131368506Y-106555000D01*
X127127000Y-106555000D01*
X126836161Y-106612852D01*
X126589599Y-106777599D01*
X120002320Y-113364878D01*
X119956833Y-113364838D01*
X119613057Y-113506883D01*
X119510281Y-113609479D01*
X118393401Y-112492599D01*
X118146839Y-112327852D01*
X117856000Y-112270000D01*
X112776000Y-112270000D01*
X112485161Y-112327852D01*
X112238599Y-112492599D01*
X111874320Y-112856878D01*
X111828833Y-112856838D01*
X111485057Y-112998883D01*
X111221808Y-113261673D01*
X111079162Y-113605201D01*
X111078838Y-113977167D01*
X111129566Y-114099939D01*
X110935159Y-114034446D01*
X110034605Y-114935000D01*
X110935159Y-115835554D01*
X111191643Y-115749148D01*
X111401458Y-115175664D01*
X111375839Y-114565540D01*
X111312566Y-114412786D01*
X111483673Y-114584192D01*
X111827201Y-114726838D01*
X112199167Y-114727162D01*
X112542943Y-114585117D01*
X112806192Y-114322327D01*
X112948838Y-113978799D01*
X112948879Y-113931923D01*
X113090802Y-113790000D01*
X114751198Y-113790000D01*
X114270599Y-114270599D01*
X114105852Y-114517161D01*
X114048000Y-114808000D01*
X114048000Y-115007537D01*
X114015808Y-115039673D01*
X113873162Y-115383201D01*
X113872838Y-115755167D01*
X113962517Y-115972207D01*
X113318407Y-115729677D01*
X112628547Y-115752164D01*
X112095641Y-115972901D01*
X111984737Y-116250132D01*
X113030000Y-117295395D01*
X113044143Y-117281253D01*
X113223748Y-117460858D01*
X113209605Y-117475000D01*
X114254868Y-118520263D01*
X114532099Y-118409359D01*
X114775323Y-117763407D01*
X114752836Y-117073547D01*
X114532099Y-116540641D01*
X114254870Y-116429738D01*
X114309288Y-116375320D01*
X114621201Y-116504838D01*
X114810000Y-116505002D01*
X114810000Y-118559953D01*
X114645057Y-118628106D01*
X114184722Y-119087637D01*
X113935284Y-119688352D01*
X113934716Y-120338795D01*
X114183106Y-120939943D01*
X114642637Y-121400278D01*
X115243352Y-121649716D01*
X115893795Y-121650284D01*
X116494943Y-121401894D01*
X116566830Y-121330132D01*
X117064737Y-121330132D01*
X118110000Y-122375395D01*
X119155263Y-121330132D01*
X119044359Y-121052901D01*
X118398407Y-120809677D01*
X117708547Y-120832164D01*
X117175641Y-121052901D01*
X117064737Y-121330132D01*
X116566830Y-121330132D01*
X116955278Y-120942363D01*
X117204716Y-120341648D01*
X117204758Y-120293108D01*
X120478514Y-120293108D01*
X120599181Y-120523000D01*
X121793000Y-120523000D01*
X121793000Y-119329845D01*
X121563110Y-119208524D01*
X121153076Y-119378355D01*
X120724817Y-119768642D01*
X120478514Y-120293108D01*
X117204758Y-120293108D01*
X117205284Y-119691205D01*
X116956894Y-119090057D01*
X116567387Y-118699868D01*
X117064737Y-118699868D01*
X117175641Y-118977099D01*
X117821593Y-119220323D01*
X118511453Y-119197836D01*
X119044359Y-118977099D01*
X119155263Y-118699868D01*
X118110000Y-117654605D01*
X117064737Y-118699868D01*
X116567387Y-118699868D01*
X116497363Y-118629722D01*
X116330000Y-118560227D01*
X116330000Y-117186593D01*
X116364677Y-117186593D01*
X116387164Y-117876453D01*
X116607901Y-118409359D01*
X116885132Y-118520263D01*
X117930395Y-117475000D01*
X116885132Y-116429737D01*
X116607901Y-116540641D01*
X116364677Y-117186593D01*
X116330000Y-117186593D01*
X116330000Y-115376802D01*
X116471680Y-115235122D01*
X116517167Y-115235162D01*
X116860943Y-115093117D01*
X117124192Y-114830327D01*
X117266838Y-114486799D01*
X117267002Y-114298000D01*
X117287198Y-114298000D01*
X118912419Y-115923221D01*
X118398407Y-115729677D01*
X117708547Y-115752164D01*
X117175641Y-115972901D01*
X117064737Y-116250132D01*
X118110000Y-117295395D01*
X118124143Y-117281253D01*
X118303748Y-117460858D01*
X118289605Y-117475000D01*
X119334868Y-118520263D01*
X119612099Y-118409359D01*
X119855323Y-117763407D01*
X119832836Y-117073547D01*
X119670266Y-116681068D01*
X121128599Y-118139401D01*
X121375161Y-118304148D01*
X121666000Y-118362000D01*
X124203196Y-118362000D01*
X124970000Y-119128804D01*
X124970000Y-119237352D01*
X124460000Y-119135907D01*
X123891715Y-119248946D01*
X123409946Y-119570853D01*
X123182298Y-119911553D01*
X123115183Y-119768642D01*
X122686924Y-119378355D01*
X122276890Y-119208524D01*
X122047000Y-119329845D01*
X122047000Y-120523000D01*
X122067000Y-120523000D01*
X122067000Y-120777000D01*
X122047000Y-120777000D01*
X122047000Y-120797000D01*
X121793000Y-120797000D01*
X121793000Y-120777000D01*
X120599181Y-120777000D01*
X120478514Y-121006892D01*
X120724817Y-121531358D01*
X120930504Y-121718808D01*
X120834683Y-121736838D01*
X120618559Y-121875910D01*
X120473569Y-122088110D01*
X120422560Y-122340000D01*
X120422560Y-124040000D01*
X120466838Y-124275317D01*
X120605910Y-124491441D01*
X120818110Y-124636431D01*
X121070000Y-124687440D01*
X122770000Y-124687440D01*
X123005317Y-124643162D01*
X123221441Y-124504090D01*
X123366431Y-124291890D01*
X123380086Y-124224459D01*
X123409946Y-124269147D01*
X123891715Y-124591054D01*
X124460000Y-124704093D01*
X125028285Y-124591054D01*
X125510054Y-124269147D01*
X125730000Y-123939974D01*
X125949946Y-124269147D01*
X126431715Y-124591054D01*
X127000000Y-124704093D01*
X127568285Y-124591054D01*
X128050054Y-124269147D01*
X128270000Y-123939974D01*
X128489946Y-124269147D01*
X128971715Y-124591054D01*
X129540000Y-124704093D01*
X130108285Y-124591054D01*
X130590054Y-124269147D01*
X130810000Y-123939974D01*
X131029946Y-124269147D01*
X131511715Y-124591054D01*
X132080000Y-124704093D01*
X132648285Y-124591054D01*
X133130054Y-124269147D01*
X133402000Y-123862150D01*
X133402000Y-125274000D01*
X109168000Y-125274000D01*
X109168000Y-123779868D01*
X111984737Y-123779868D01*
X112095641Y-124057099D01*
X112741593Y-124300323D01*
X113431453Y-124277836D01*
X113964359Y-124057099D01*
X114075263Y-123779868D01*
X117064737Y-123779868D01*
X117175641Y-124057099D01*
X117821593Y-124300323D01*
X118511453Y-124277836D01*
X119044359Y-124057099D01*
X119155263Y-123779868D01*
X118110000Y-122734605D01*
X117064737Y-123779868D01*
X114075263Y-123779868D01*
X113030000Y-122734605D01*
X111984737Y-123779868D01*
X109168000Y-123779868D01*
X109168000Y-122266593D01*
X111284677Y-122266593D01*
X111307164Y-122956453D01*
X111527901Y-123489359D01*
X111805132Y-123600263D01*
X112850395Y-122555000D01*
X113209605Y-122555000D01*
X114254868Y-123600263D01*
X114532099Y-123489359D01*
X114775323Y-122843407D01*
X114756521Y-122266593D01*
X116364677Y-122266593D01*
X116387164Y-122956453D01*
X116607901Y-123489359D01*
X116885132Y-123600263D01*
X117930395Y-122555000D01*
X118289605Y-122555000D01*
X119334868Y-123600263D01*
X119612099Y-123489359D01*
X119855323Y-122843407D01*
X119832836Y-122153547D01*
X119612099Y-121620641D01*
X119334868Y-121509737D01*
X118289605Y-122555000D01*
X117930395Y-122555000D01*
X116885132Y-121509737D01*
X116607901Y-121620641D01*
X116364677Y-122266593D01*
X114756521Y-122266593D01*
X114752836Y-122153547D01*
X114532099Y-121620641D01*
X114254868Y-121509737D01*
X113209605Y-122555000D01*
X112850395Y-122555000D01*
X111805132Y-121509737D01*
X111527901Y-121620641D01*
X111284677Y-122266593D01*
X109168000Y-122266593D01*
X109168000Y-121330132D01*
X111984737Y-121330132D01*
X113030000Y-122375395D01*
X114075263Y-121330132D01*
X113964359Y-121052901D01*
X113318407Y-120809677D01*
X112628547Y-120832164D01*
X112095641Y-121052901D01*
X111984737Y-121330132D01*
X109168000Y-121330132D01*
X109168000Y-118851806D01*
X109548330Y-119009733D01*
X110158991Y-119010265D01*
X110723371Y-118777068D01*
X110800706Y-118699868D01*
X111984737Y-118699868D01*
X112095641Y-118977099D01*
X112741593Y-119220323D01*
X113431453Y-119197836D01*
X113964359Y-118977099D01*
X114075263Y-118699868D01*
X113030000Y-117654605D01*
X111984737Y-118699868D01*
X110800706Y-118699868D01*
X111155551Y-118345643D01*
X111328743Y-117928550D01*
X111527901Y-118409359D01*
X111805132Y-118520263D01*
X112850395Y-117475000D01*
X111805132Y-116429737D01*
X111527901Y-116540641D01*
X111338091Y-117044737D01*
X111157068Y-116606629D01*
X110725643Y-116174449D01*
X110704806Y-116165797D01*
X110755554Y-116015159D01*
X109855000Y-115114605D01*
X109840858Y-115128748D01*
X109661253Y-114949143D01*
X109675395Y-114935000D01*
X109661253Y-114920858D01*
X109840858Y-114741253D01*
X109855000Y-114755395D01*
X110755554Y-113854841D01*
X110704965Y-113704673D01*
X110723371Y-113697068D01*
X111155551Y-113265643D01*
X111389733Y-112701670D01*
X111389958Y-112442844D01*
X112297401Y-111535401D01*
X112462148Y-111288840D01*
X112520000Y-110998000D01*
X112520000Y-102870000D01*
X112462148Y-102579161D01*
X112297401Y-102332599D01*
X112012000Y-102047198D01*
X112012000Y-98298000D01*
X111954148Y-98007161D01*
X111789401Y-97760599D01*
X109980000Y-95951198D01*
X109980000Y-89214802D01*
X110703788Y-88491014D01*
X110784231Y-88611406D01*
X110735301Y-88631673D01*
X110556673Y-88810302D01*
X110460000Y-89043691D01*
X110460000Y-89884250D01*
X110618750Y-90043000D01*
X112268000Y-90043000D01*
X112268000Y-90023000D01*
X112522000Y-90023000D01*
X112522000Y-90043000D01*
X114171250Y-90043000D01*
X114330000Y-89884250D01*
X114330000Y-89043691D01*
X114233327Y-88810302D01*
X114054699Y-88631673D01*
X114005769Y-88611406D01*
X114243452Y-88255687D01*
X114283674Y-88053476D01*
X114556000Y-88325802D01*
G36*
X119790971Y-86246120D02*
X119961405Y-86360000D01*
X119790971Y-86473880D01*
X119436548Y-87004313D01*
X119312091Y-87630000D01*
X119436548Y-88255687D01*
X119674231Y-88611406D01*
X119625301Y-88631673D01*
X119446673Y-88810302D01*
X119350000Y-89043691D01*
X119350000Y-89884250D01*
X119508750Y-90043000D01*
X121158000Y-90043000D01*
X121158000Y-90023000D01*
X121412000Y-90023000D01*
X121412000Y-90043000D01*
X123061250Y-90043000D01*
X123220000Y-89884250D01*
X123220000Y-89043691D01*
X123181188Y-88949990D01*
X125673198Y-91442000D01*
X123159653Y-91442000D01*
X123220000Y-91296309D01*
X123220000Y-90455750D01*
X123061250Y-90297000D01*
X121412000Y-90297000D01*
X121412000Y-90317000D01*
X121158000Y-90317000D01*
X121158000Y-90297000D01*
X119508750Y-90297000D01*
X119350000Y-90455750D01*
X119350000Y-91296309D01*
X119410347Y-91442000D01*
X116025078Y-91442000D01*
X116076000Y-91186000D01*
X116076000Y-88011000D01*
X116018148Y-87720161D01*
X115853401Y-87473599D01*
X114229802Y-85850000D01*
X119526293Y-85850000D01*
X119790971Y-86246120D01*
X119790971Y-86246120D01*
G37*
X119790971Y-86246120D02*
X119961405Y-86360000D01*
X119790971Y-86473880D01*
X119436548Y-87004313D01*
X119312091Y-87630000D01*
X119436548Y-88255687D01*
X119674231Y-88611406D01*
X119625301Y-88631673D01*
X119446673Y-88810302D01*
X119350000Y-89043691D01*
X119350000Y-89884250D01*
X119508750Y-90043000D01*
X121158000Y-90043000D01*
X121158000Y-90023000D01*
X121412000Y-90023000D01*
X121412000Y-90043000D01*
X123061250Y-90043000D01*
X123220000Y-89884250D01*
X123220000Y-89043691D01*
X123181188Y-88949990D01*
X125673198Y-91442000D01*
X123159653Y-91442000D01*
X123220000Y-91296309D01*
X123220000Y-90455750D01*
X123061250Y-90297000D01*
X121412000Y-90297000D01*
X121412000Y-90317000D01*
X121158000Y-90317000D01*
X121158000Y-90297000D01*
X119508750Y-90297000D01*
X119350000Y-90455750D01*
X119350000Y-91296309D01*
X119410347Y-91442000D01*
X116025078Y-91442000D01*
X116076000Y-91186000D01*
X116076000Y-88011000D01*
X116018148Y-87720161D01*
X115853401Y-87473599D01*
X114229802Y-85850000D01*
X119526293Y-85850000D01*
X119790971Y-86246120D01*
G36*
X128680971Y-86246120D02*
X128851405Y-86360000D01*
X128680971Y-86473880D01*
X128326548Y-87004313D01*
X128202091Y-87630000D01*
X128326548Y-88255687D01*
X128564231Y-88611406D01*
X128515301Y-88631673D01*
X128336673Y-88810302D01*
X128240000Y-89043691D01*
X128240000Y-89884250D01*
X128398750Y-90043000D01*
X130048000Y-90043000D01*
X130048000Y-90023000D01*
X130302000Y-90023000D01*
X130302000Y-90043000D01*
X130322000Y-90043000D01*
X130322000Y-90297000D01*
X130302000Y-90297000D01*
X130302000Y-90317000D01*
X130048000Y-90317000D01*
X130048000Y-90297000D01*
X128398750Y-90297000D01*
X128240000Y-90455750D01*
X128240000Y-91188000D01*
X127568802Y-91188000D01*
X123473401Y-87092599D01*
X123226839Y-86927852D01*
X123060217Y-86894708D01*
X122779029Y-86473880D01*
X122608595Y-86360000D01*
X122779029Y-86246120D01*
X123043707Y-85850000D01*
X128416293Y-85850000D01*
X128680971Y-86246120D01*
X128680971Y-86246120D01*
G37*
X128680971Y-86246120D02*
X128851405Y-86360000D01*
X128680971Y-86473880D01*
X128326548Y-87004313D01*
X128202091Y-87630000D01*
X128326548Y-88255687D01*
X128564231Y-88611406D01*
X128515301Y-88631673D01*
X128336673Y-88810302D01*
X128240000Y-89043691D01*
X128240000Y-89884250D01*
X128398750Y-90043000D01*
X130048000Y-90043000D01*
X130048000Y-90023000D01*
X130302000Y-90023000D01*
X130302000Y-90043000D01*
X130322000Y-90043000D01*
X130322000Y-90297000D01*
X130302000Y-90297000D01*
X130302000Y-90317000D01*
X130048000Y-90317000D01*
X130048000Y-90297000D01*
X128398750Y-90297000D01*
X128240000Y-90455750D01*
X128240000Y-91188000D01*
X127568802Y-91188000D01*
X123473401Y-87092599D01*
X123226839Y-86927852D01*
X123060217Y-86894708D01*
X122779029Y-86473880D01*
X122608595Y-86360000D01*
X122779029Y-86246120D01*
X123043707Y-85850000D01*
X128416293Y-85850000D01*
X128680971Y-86246120D01*
M02*
