G04 #@! TF.FileFunction,Legend,Top*
%FSLAX46Y46*%
G04 Gerber Fmt 4.6, Leading zero omitted, Abs format (unit mm)*
G04 Created by KiCad (PCBNEW 4.0.7) date Fri Oct  5 14:58:57 2018*
%MOMM*%
%LPD*%
G01*
G04 APERTURE LIST*
%ADD10C,0.100000*%
%ADD11C,0.120000*%
%ADD12C,0.150000*%
G04 APERTURE END LIST*
D10*
D11*
X133410000Y-124520000D02*
X133410000Y-121860000D01*
X123190000Y-124520000D02*
X133410000Y-124520000D01*
X123190000Y-121860000D02*
X133410000Y-121860000D01*
X123190000Y-124520000D02*
X123190000Y-121860000D01*
X121920000Y-124520000D02*
X120590000Y-124520000D01*
X120590000Y-124520000D02*
X120590000Y-123190000D01*
D10*
X132102472Y-126132228D02*
X126291180Y-126132228D01*
X126291180Y-126132228D02*
X126264849Y-124848795D01*
X126264849Y-124848795D02*
X117433627Y-124855483D01*
X117433627Y-124855483D02*
X117435603Y-126057736D01*
X117435603Y-126057736D02*
X108354807Y-126031658D01*
X108354807Y-126031658D02*
X108368805Y-94861507D01*
X108368805Y-94861507D02*
X108601616Y-94258714D01*
X108601616Y-94258714D02*
X108885099Y-93713833D01*
X108885099Y-93713833D02*
X109219747Y-93227423D01*
X109219747Y-93227423D02*
X109606047Y-92800048D01*
X109606047Y-92800048D02*
X110044488Y-92432259D01*
X110044488Y-92432259D02*
X110535560Y-92124623D01*
X110535560Y-92124623D02*
X111079750Y-91877690D01*
X111079750Y-91877690D02*
X111677547Y-91692024D01*
X111677547Y-91692024D02*
X130715460Y-91663266D01*
X130715460Y-91663266D02*
X131334824Y-91897259D01*
X131334824Y-91897259D02*
X131923018Y-92181742D01*
X131923018Y-92181742D02*
X132466445Y-92531257D01*
X132466445Y-92531257D02*
X132951503Y-92960342D01*
X132951503Y-92960342D02*
X133364595Y-93483540D01*
X133364595Y-93483540D02*
X133692122Y-94115387D01*
X133692122Y-94115387D02*
X133920482Y-94870425D01*
X133920482Y-94870425D02*
X134036078Y-95763193D01*
X134036078Y-95763193D02*
X134061026Y-118318285D01*
X134061026Y-118318285D02*
X132117480Y-119279181D01*
X132117480Y-119279181D02*
X132087686Y-126087524D01*
X118105350Y-119906451D02*
X125244931Y-119906451D01*
X125244931Y-119906451D02*
X125244931Y-125720188D01*
X125244931Y-125720188D02*
X118105350Y-125720188D01*
X118105350Y-125720188D02*
X118105350Y-119906451D01*
X132028600Y-119257349D02*
X130476378Y-119257349D01*
X130476378Y-119257349D02*
X129947211Y-119786515D01*
X129947211Y-119786515D02*
X128694850Y-119786515D01*
X128694850Y-119786515D02*
X128694850Y-124848876D01*
X128694850Y-124848876D02*
X129982489Y-124848876D01*
X129982489Y-124848876D02*
X130511656Y-125342765D01*
X130511656Y-125342765D02*
X132081517Y-125342765D01*
X132081517Y-125342765D02*
X132028600Y-119257349D01*
X132063878Y-121338738D02*
X132716517Y-121338738D01*
X132716517Y-121338738D02*
X132716517Y-123331932D01*
X132716517Y-123331932D02*
X132099156Y-123331932D01*
D11*
X109375000Y-91540000D02*
X115375000Y-91540000D01*
X115375000Y-91540000D02*
X115375000Y-83720000D01*
X115375000Y-83720000D02*
X109375000Y-83720000D01*
X109375000Y-83720000D02*
X109375000Y-91540000D01*
X115375000Y-90170000D02*
X114375000Y-90170000D01*
X114375000Y-90170000D02*
X114375000Y-85090000D01*
X114375000Y-85090000D02*
X115375000Y-85090000D01*
X114375000Y-90170000D02*
X113945000Y-89920000D01*
X113945000Y-89920000D02*
X113945000Y-85340000D01*
X113945000Y-85340000D02*
X114375000Y-85090000D01*
X115375000Y-89920000D02*
X114375000Y-89920000D01*
X115375000Y-85340000D02*
X114375000Y-85340000D01*
X109375000Y-90970000D02*
X109995000Y-90970000D01*
X109995000Y-90970000D02*
X109995000Y-89370000D01*
X109995000Y-89370000D02*
X109375000Y-89370000D01*
X109375000Y-88430000D02*
X109995000Y-88430000D01*
X109995000Y-88430000D02*
X109995000Y-86830000D01*
X109995000Y-86830000D02*
X109375000Y-86830000D01*
X109375000Y-85890000D02*
X109995000Y-85890000D01*
X109995000Y-85890000D02*
X109995000Y-84290000D01*
X109995000Y-84290000D02*
X109375000Y-84290000D01*
D10*
X129485000Y-93582000D02*
X129485000Y-103582000D01*
X113085000Y-93582000D02*
X113085000Y-94082000D01*
X113485000Y-93582000D02*
X113085000Y-93582000D01*
X113085000Y-113182000D02*
X113085000Y-113682000D01*
X113485000Y-113682000D02*
X113085000Y-113682000D01*
X129485000Y-113182000D02*
X129485000Y-113682000D01*
X129485000Y-113682000D02*
X129085000Y-113682000D01*
X129485000Y-93582000D02*
X129085000Y-93582000D01*
D11*
X114570000Y-116715000D02*
X116570000Y-116715000D01*
X114570000Y-123315000D02*
X116570000Y-123315000D01*
X118870000Y-119015000D02*
X118870000Y-121015000D01*
X112270000Y-119015000D02*
X112270000Y-121015000D01*
X118265000Y-91540000D02*
X124265000Y-91540000D01*
X124265000Y-91540000D02*
X124265000Y-83720000D01*
X124265000Y-83720000D02*
X118265000Y-83720000D01*
X118265000Y-83720000D02*
X118265000Y-91540000D01*
X124265000Y-90170000D02*
X123265000Y-90170000D01*
X123265000Y-90170000D02*
X123265000Y-85090000D01*
X123265000Y-85090000D02*
X124265000Y-85090000D01*
X123265000Y-90170000D02*
X122835000Y-89920000D01*
X122835000Y-89920000D02*
X122835000Y-85340000D01*
X122835000Y-85340000D02*
X123265000Y-85090000D01*
X124265000Y-89920000D02*
X123265000Y-89920000D01*
X124265000Y-85340000D02*
X123265000Y-85340000D01*
X118265000Y-90970000D02*
X118885000Y-90970000D01*
X118885000Y-90970000D02*
X118885000Y-89370000D01*
X118885000Y-89370000D02*
X118265000Y-89370000D01*
X118265000Y-88430000D02*
X118885000Y-88430000D01*
X118885000Y-88430000D02*
X118885000Y-86830000D01*
X118885000Y-86830000D02*
X118265000Y-86830000D01*
X118265000Y-85890000D02*
X118885000Y-85890000D01*
X118885000Y-85890000D02*
X118885000Y-84290000D01*
X118885000Y-84290000D02*
X118265000Y-84290000D01*
X127155000Y-91540000D02*
X133155000Y-91540000D01*
X133155000Y-91540000D02*
X133155000Y-83720000D01*
X133155000Y-83720000D02*
X127155000Y-83720000D01*
X127155000Y-83720000D02*
X127155000Y-91540000D01*
X133155000Y-90170000D02*
X132155000Y-90170000D01*
X132155000Y-90170000D02*
X132155000Y-85090000D01*
X132155000Y-85090000D02*
X133155000Y-85090000D01*
X132155000Y-90170000D02*
X131725000Y-89920000D01*
X131725000Y-89920000D02*
X131725000Y-85340000D01*
X131725000Y-85340000D02*
X132155000Y-85090000D01*
X133155000Y-89920000D02*
X132155000Y-89920000D01*
X133155000Y-85340000D02*
X132155000Y-85340000D01*
X127155000Y-90970000D02*
X127775000Y-90970000D01*
X127775000Y-90970000D02*
X127775000Y-89370000D01*
X127775000Y-89370000D02*
X127155000Y-89370000D01*
X127155000Y-88430000D02*
X127775000Y-88430000D01*
X127775000Y-88430000D02*
X127775000Y-86830000D01*
X127775000Y-86830000D02*
X127155000Y-86830000D01*
X127155000Y-85890000D02*
X127775000Y-85890000D01*
X127775000Y-85890000D02*
X127775000Y-84290000D01*
X127775000Y-84290000D02*
X127155000Y-84290000D01*
X120590000Y-119320000D02*
X120590000Y-121980000D01*
X130810000Y-119320000D02*
X120590000Y-119320000D01*
X130810000Y-121980000D02*
X120590000Y-121980000D01*
X130810000Y-119320000D02*
X130810000Y-121980000D01*
X132080000Y-119320000D02*
X133410000Y-119320000D01*
X133410000Y-119320000D02*
X133410000Y-120650000D01*
D12*
X130737381Y-96808190D02*
X129737381Y-96808190D01*
X130642143Y-95760571D02*
X130689762Y-95808190D01*
X130737381Y-95951047D01*
X130737381Y-96046285D01*
X130689762Y-96189143D01*
X130594524Y-96284381D01*
X130499286Y-96332000D01*
X130308810Y-96379619D01*
X130165952Y-96379619D01*
X129975476Y-96332000D01*
X129880238Y-96284381D01*
X129785000Y-96189143D01*
X129737381Y-96046285D01*
X129737381Y-95951047D01*
X129785000Y-95808190D01*
X129832619Y-95760571D01*
X130737381Y-94808190D02*
X130737381Y-95379619D01*
X130737381Y-95093905D02*
X129737381Y-95093905D01*
X129880238Y-95189143D01*
X129975476Y-95284381D01*
X130023095Y-95379619D01*
M02*
