M48
;DRILL file {KiCad 4.0.7} date Fri Oct  5 15:06:58 2018
;FORMAT={2:4/ absolute / inch / suppress leading zeros}
FMAT,2
INCH,TZ
T1C0.016
T2C0.039
T3C0.040
T4C0.047
T5C0.059
T6C0.067
%
G90
G05
M72
T1
X43700Y-40800
X44000Y-36700
X44100Y-37600
X44100Y-44800
X44900Y-45000
X45000Y-36600
X45200Y-45500
X45800Y-45000
X47300Y-45000
X48100Y-45000
X48900Y-45000
X49700Y-36600
X49700Y-45000
X50200Y-46500
X51200Y-41300
X51400Y-46700
T2
X48000Y-47500
X48000Y-48500
X49000Y-47500
X49000Y-48500
X50000Y-47500
X50000Y-48500
X51000Y-47500
X51000Y-48500
X52000Y-47500
X52000Y-48500
T3
X43250Y-39250
X43250Y-40250
X43250Y-41250
X43250Y-42250
X43250Y-43250
X43250Y-44250
X43250Y-45250
X43250Y-46250
X52250Y-39250
X52250Y-40250
X52250Y-41250
X52250Y-42250
X52250Y-43250
X52250Y-44250
X52250Y-45250
X52250Y-46250
T4
X44250Y-33500
X44250Y-34500
X44250Y-35500
X47750Y-33500
X47750Y-34500
X47750Y-35500
X51250Y-33500
X51250Y-34500
X51250Y-35500
T5
X45500Y-47250
T6
X44500Y-46250
X44500Y-48250
X46500Y-46250
X46500Y-48250
T0
M30
